<svg width="17" height="17" viewBox="0 0 17 17" fill="none" xmlns="http://www.w3.org/2000/svg">
<path d="M6.74082 12.3217C6.74082 9.60291 8.77832 7.36228 11.4064 7.03416V6.98728C11.5783 6.73728 12.0721 6.32166 12.0721 5.65291C12.0721 4.98416 11.4064 4.31853 11.4064 3.98728C11.4096 1.32166 10.0502 0.321655 8.0752 0.321655C6.18457 0.321655 4.74082 1.32166 4.74082 3.98728C4.74082 4.32166 4.0752 4.98728 4.0752 5.65291C4.0752 6.31853 4.5502 6.75916 4.74082 6.98728C4.74082 6.98728 4.74082 7.65291 5.0752 8.65291C5.0752 8.98728 5.74082 9.31853 6.0752 9.65291C6.0752 9.98728 6.0752 10.3185 5.74082 10.9873L2.0752 11.656C0.74082 11.9873 0.0751953 14.3217 0.0751953 16.3217H8.55645C7.44707 15.3435 6.74082 13.9154 6.74082 12.3217ZM12.0752 8.32166C9.86582 8.32166 8.0752 10.1123 8.0752 12.3217C8.0752 14.531 9.86582 16.3217 12.0752 16.3217C14.2846 16.3217 16.0752 14.531 16.0752 12.3217C16.0752 10.1123 14.2846 8.32166 12.0752 8.32166ZM14.7408 12.9873H12.7408V14.9873H11.4064V12.9873H9.40645V11.6529H11.4064V9.65291H12.7408V11.6529H14.7408V12.9873Z" fill="#A3AED0"/>
</svg>
