<svg width="18" height="20" viewBox="0 0 18 20" fill="none" xmlns="http://www.w3.org/2000/svg">
<path d="M14.5752 17.4883H3.5752V16.205C3.5752 14.3717 7.24186 13.3633 9.0752 13.3633C10.9085 13.3633 14.5752 14.3717 14.5752 16.205M9.0752 6.48833C9.80454 6.48833 10.504 6.77806 11.0197 7.29378C11.5355 7.80951 11.8252 8.50898 11.8252 9.23833C11.8252 9.96767 11.5355 10.6671 11.0197 11.1829C10.504 11.6986 9.80454 11.9883 9.0752 11.9883C8.34585 11.9883 7.64638 11.6986 7.13065 11.1829C6.61493 10.6671 6.3252 9.96767 6.3252 9.23833C6.3252 8.50898 6.61493 7.80951 7.13065 7.29378C7.64638 6.77806 8.34585 6.48833 9.0752 6.48833ZM9.0752 2.82166C9.31831 2.82166 9.55147 2.91824 9.72338 3.09015C9.89528 3.26205 9.99186 3.49521 9.99186 3.73833C9.99186 3.98144 9.89528 4.2146 9.72338 4.38651C9.55147 4.55842 9.31831 4.65499 9.0752 4.65499C8.83208 4.65499 8.59892 4.55842 8.42701 4.38651C8.25511 4.2146 8.15853 3.98144 8.15853 3.73833C8.15853 3.49521 8.25511 3.26205 8.42701 3.09015C8.59892 2.91824 8.83208 2.82166 9.0752 2.82166ZM15.4919 2.82166H11.6602C11.2752 1.75833 10.2669 0.988327 9.0752 0.988327C7.88353 0.988327 6.8752 1.75833 6.4902 2.82166H2.65853C2.1723 2.82166 1.70598 3.01481 1.36217 3.35863C1.01835 3.70245 0.825195 4.16876 0.825195 4.65499V17.4883C0.825195 17.9746 1.01835 18.4409 1.36217 18.7847C1.70598 19.1285 2.1723 19.3217 2.65853 19.3217H15.4919C15.9781 19.3217 16.4444 19.1285 16.7882 18.7847C17.132 18.4409 17.3252 17.9746 17.3252 17.4883V4.65499C17.3252 4.16876 17.132 3.70245 16.7882 3.35863C16.4444 3.01481 15.9781 2.82166 15.4919 2.82166Z" fill="#A3AED0"/>
</svg>
