<svg width="13" height="13" viewBox="0 0 13 13" fill="none" xmlns="http://www.w3.org/2000/svg">
<path d="M2.78885 3.46375H2.11412C1.75622 3.46375 1.41297 3.60592 1.1599 3.859C0.906824 4.11207 0.764648 4.45531 0.764648 4.81322V10.8858C0.764648 11.2437 0.906824 11.587 1.1599 11.8401C1.41297 12.0931 1.75622 12.2353 2.11412 12.2353H8.18674C8.54464 12.2353 8.88788 12.0931 9.14096 11.8401C9.39403 11.587 9.53621 11.2437 9.53621 10.8858V10.2111" stroke="#015AAC" stroke-linecap="round" stroke-linejoin="round"/>
<path d="M8.86182 2.11425L10.886 4.13846M11.8205 3.18371C12.0863 2.91797 12.2356 2.55754 12.2356 2.18173C12.2356 1.80591 12.0863 1.44549 11.8205 1.17974C11.5548 0.914002 11.1944 0.764709 10.8186 0.764709C10.4427 0.764709 10.0823 0.914002 9.81657 1.17974L4.13867 6.8374V8.86161H6.16288L11.8205 3.18371Z" stroke="#015AAC" stroke-linecap="round" stroke-linejoin="round"/>
</svg>
