<svg width="18" height="17" viewBox="0 0 18 17" fill="none" xmlns="http://www.w3.org/2000/svg">
<path d="M2.54154 5.555H2.77487C3.6732 5.555 4.4082 6.29 4.4082 7.18833V15.355C4.4082 16.2533 3.6732 16.9883 2.77487 16.9883H2.54154C1.6432 16.9883 0.908203 16.2533 0.908203 15.355V7.18833C0.908203 6.29 1.6432 5.555 2.54154 5.555ZM9.07487 0.654999C9.9732 0.654999 10.7082 1.39 10.7082 2.28833V15.355C10.7082 16.2533 9.9732 16.9883 9.07487 16.9883C8.17654 16.9883 7.44154 16.2533 7.44154 15.355V2.28833C7.44154 1.39 8.17654 0.654999 9.07487 0.654999ZM15.6082 9.98833C16.5065 9.98833 17.2415 10.7233 17.2415 11.6217V15.355C17.2415 16.2533 16.5065 16.9883 15.6082 16.9883C14.7099 16.9883 13.9749 16.2533 13.9749 15.355V11.6217C13.9749 10.7233 14.7099 9.98833 15.6082 9.98833Z" fill="#A3AED0"/>
</svg>
