<svg width="18" height="18" viewBox="0 0 18 18" fill="none" xmlns="http://www.w3.org/2000/svg">
<path d="M1 18C0.71667 18 0.479337 17.904 0.288004 17.712C0.0966702 17.52 0.000670115 17.2827 3.44827e-06 17C-0.000663218 16.7173 0.0953369 16.48 0.288004 16.288C0.48067 16.096 0.718003 16 1 16H2V1C2 0.716667 2.096 0.479333 2.288 0.288C2.48 0.0966668 2.71734 0.000666667 3 0H10C10.2833 0 10.521 0.0960001 10.713 0.288C10.905 0.48 11.0007 0.717333 11 1H15C15.2833 1 15.521 1.096 15.713 1.288C15.905 1.48 16.0007 1.71733 16 2V16H17C17.2833 16 17.521 16.096 17.713 16.288C17.905 16.48 18.0007 16.7173 18 17C17.9993 17.2827 17.9033 17.5203 17.712 17.713C17.5207 17.9057 17.2833 18.0013 17 18H15C14.7167 18 14.4793 17.904 14.288 17.712C14.0967 17.52 14.0007 17.2827 14 17V3H11V17C11 17.2833 10.904 17.521 10.712 17.713C10.52 17.905 10.2827 18.0007 10 18H1ZM9 9C9 8.71667 8.904 8.47933 8.712 8.288C8.52 8.09667 8.28267 8.00067 8 8C7.71734 7.99933 7.48 8.09533 7.288 8.288C7.096 8.48067 7 8.718 7 9C7 9.282 7.096 9.51967 7.288 9.713C7.48 9.90633 7.71734 10.002 8 10C8.28267 9.998 8.52034 9.902 8.713 9.712C8.90567 9.522 9.00134 9.28467 9 9Z" fill="#025FAE"/>
</svg>
