<svg width="15" height="17" viewBox="0 0 15 17" fill="none" xmlns="http://www.w3.org/2000/svg">
<path d="M7.5 7.63158C5.14848 7.63158 4.67196 4.01053 4.67196 4.01053C4.39227 2.12632 5.24171 0 7.46892 0C9.70649 0 10.5559 2.12632 10.2762 4.01053C10.2762 4.01053 9.85152 7.63158 7.5 7.63158ZM7.5 10.3368L10.3177 8.42105C12.7935 8.42105 15 10.8737 15 13.1895V15.8105C15 15.8105 11.2189 17 7.5 17C3.71892 17 0 15.8105 0 15.8105V13.1895C0 10.8211 2.00967 8.47368 4.63053 8.47368L7.5 10.3368Z" fill="white"/>
</svg>
