<svg width="15" height="14" viewBox="0 0 15 14" fill="none" xmlns="http://www.w3.org/2000/svg">
<path d="M13.4062 10.0417C13.4062 9.88583 13.385 9.74417 13.3638 9.59542L13.9587 9.07833C14.0863 8.965 14.1146 8.78083 14.0296 8.63208L13.6117 7.90958C13.5714 7.83865 13.5075 7.78415 13.4311 7.75565C13.3546 7.72716 13.2706 7.72648 13.1938 7.75375L12.4429 8.00875C12.2162 7.8175 11.9612 7.66875 11.6779 7.5625L11.5221 6.79042C11.5058 6.71042 11.4623 6.63852 11.399 6.58689C11.3358 6.53526 11.2566 6.50707 11.175 6.50708H10.3392C10.1692 6.50708 10.0275 6.6275 9.99208 6.79042L9.83625 7.5625C9.55292 7.66875 9.29792 7.8175 9.07125 8.00875L8.32042 7.75375C8.24349 7.72733 8.15977 7.72843 8.08356 7.75684C8.00734 7.78526 7.94335 7.83925 7.9025 7.90958L7.48458 8.63208C7.39958 8.78083 7.42792 8.965 7.55542 9.07833L8.15042 9.59542C8.12917 9.74417 8.10792 9.88583 8.10792 10.0417C8.10792 10.1975 8.12917 10.3392 8.15042 10.4879L7.55542 11.005C7.42792 11.1183 7.39958 11.3025 7.48458 11.4513L7.9025 12.1738C7.9875 12.3225 8.16458 12.3863 8.32042 12.3296L9.07125 12.0746C9.29792 12.2658 9.55292 12.4146 9.83625 12.5208L9.99208 13.2929C10.0275 13.4558 10.1692 13.5763 10.3392 13.5763H11.175C11.345 13.5763 11.4867 13.4558 11.5221 13.2929L11.6779 12.5208C11.9612 12.4146 12.2162 12.2658 12.4429 12.0746L13.1938 12.3296C13.3567 12.3863 13.5267 12.3154 13.6117 12.1738L14.0296 11.4513C14.1146 11.3025 14.0863 11.1183 13.9587 11.005L13.3638 10.4879C13.385 10.3392 13.4062 10.1975 13.4062 10.0417ZM10.75 11.4583C9.97083 11.4583 9.33333 10.8208 9.33333 10.0417C9.33333 9.2625 9.97083 8.625 10.75 8.625C11.5292 8.625 12.1667 9.2625 12.1667 10.0417C12.1667 10.8208 11.5292 11.4583 10.75 11.4583ZM7.91667 5.97583V2.25H10.0417V5.08333H11.4583V1.54167C11.4583 1.15208 11.1396 0.833333 10.75 0.833333H7.91667C7.91667 0.44375 7.59792 0.125 7.20833 0.125H2.25C1.86042 0.125 1.54167 0.44375 1.54167 0.833333V11.4583H0.833333C0.44375 11.4583 0.125 11.7771 0.125 12.1667C0.125 12.5563 0.44375 12.875 0.833333 12.875H6.68417C6.10244 12.0448 5.79079 11.0554 5.79167 10.0417C5.79167 8.35583 6.63458 6.87542 7.91667 5.97583ZM5.08333 6.5C5.08333 6.11042 5.40208 5.79167 5.79167 5.79167C6.18125 5.79167 6.5 6.11042 6.5 6.5C6.5 6.88958 6.18125 7.20833 5.79167 7.20833C5.40208 7.20833 5.08333 6.88958 5.08333 6.5Z" fill="white"/>
</svg>
