<svg width="12" height="12" viewBox="0 0 12 12" fill="none" xmlns="http://www.w3.org/2000/svg">
<path d="M10.875 4.875H7.125V1.125C7.125 0.826631 7.00647 0.540483 6.7955 0.329505C6.58452 0.118526 6.29837 0 6 0C5.70163 0 5.41548 0.118526 5.2045 0.329505C4.99353 0.540483 4.875 0.826631 4.875 1.125V4.875H1.125C0.826631 4.875 0.540483 4.99353 0.329505 5.2045C0.118526 5.41548 0 5.70163 0 6C0 6.29837 0.118526 6.58452 0.329505 6.7955C0.540483 7.00647 0.826631 7.125 1.125 7.125H4.875V10.875C4.875 11.1734 4.99353 11.4595 5.2045 11.6705C5.41548 11.8815 5.70163 12 6 12C6.29837 12 6.58452 11.8815 6.7955 11.6705C7.00647 11.4595 7.125 11.1734 7.125 10.875V7.125H10.875C11.1734 7.125 11.4595 7.00647 11.6705 6.7955C11.8815 6.58452 12 6.29837 12 6C12 5.70163 11.8815 5.41548 11.6705 5.2045C11.4595 4.99353 11.1734 4.875 10.875 4.875Z" fill="white"/>
</svg>
