<svg width="13" height="13" viewBox="0 0 13 13" fill="none" xmlns="http://www.w3.org/2000/svg">
<path d="M1.6 4.05H1.775C2.44875 4.05 3 4.60125 3 5.275V11.4C3 12.0738 2.44875 12.625 1.775 12.625H1.6C0.92625 12.625 0.375 12.0738 0.375 11.4V5.275C0.375 4.60125 0.92625 4.05 1.6 4.05ZM6.5 0.375C7.17375 0.375 7.725 0.92625 7.725 1.6V11.4C7.725 12.0738 7.17375 12.625 6.5 12.625C5.82625 12.625 5.275 12.0738 5.275 11.4V1.6C5.275 0.92625 5.82625 0.375 6.5 0.375ZM11.4 7.375C12.0738 7.375 12.625 7.92625 12.625 8.6V11.4C12.625 12.0738 12.0738 12.625 11.4 12.625C10.7263 12.625 10.175 12.0738 10.175 11.4V8.6C10.175 7.92625 10.7263 7.375 11.4 7.375Z" fill="#F4781A"/>
</svg>
