<svg width="14" height="13" viewBox="0 0 14 13" fill="none" xmlns="http://www.w3.org/2000/svg">
<path d="M3.48535 1.3C3.48535 0.955218 3.62232 0.624558 3.86611 0.380761C4.10991 0.136964 4.44057 0 4.78535 0H8.68535C9.03013 0 9.36079 0.136964 9.60459 0.380761C9.84839 0.624558 9.98535 0.955218 9.98535 1.3V2.6H12.5854C12.7577 2.6 12.9231 2.66848 13.045 2.79038C13.1669 2.91228 13.2354 3.07761 13.2354 3.25C13.2354 3.42239 13.1669 3.58772 13.045 3.70962C12.9231 3.83152 12.7577 3.9 12.5854 3.9H11.8905L11.327 11.7923C11.3036 12.1203 11.1568 12.4272 10.9162 12.6513C10.6756 12.8754 10.359 13 10.0302 13H3.43985C3.11104 13 2.79444 12.8754 2.55383 12.6513C2.31321 12.4272 2.16645 12.1203 2.1431 11.7923L1.58085 3.9H0.885352C0.712961 3.9 0.547631 3.83152 0.425732 3.70962C0.303833 3.58772 0.235352 3.42239 0.235352 3.25C0.235352 3.07761 0.303833 2.91228 0.425732 2.79038C0.547631 2.66848 0.712961 2.6 0.885352 2.6H3.48535V1.3ZM4.78535 2.6H8.68535V1.3H4.78535V2.6ZM2.88345 3.9L3.4405 11.7H10.0309L10.5879 3.9H2.88345ZM5.43535 5.2C5.60774 5.2 5.77307 5.26848 5.89497 5.39038C6.01687 5.51228 6.08535 5.67761 6.08535 5.85V9.75C6.08535 9.92239 6.01687 10.0877 5.89497 10.2096C5.77307 10.3315 5.60774 10.4 5.43535 10.4C5.26296 10.4 5.09763 10.3315 4.97573 10.2096C4.85383 10.0877 4.78535 9.92239 4.78535 9.75V5.85C4.78535 5.67761 4.85383 5.51228 4.97573 5.39038C5.09763 5.26848 5.26296 5.2 5.43535 5.2ZM8.03535 5.2C8.20774 5.2 8.37307 5.26848 8.49497 5.39038C8.61687 5.51228 8.68535 5.67761 8.68535 5.85V9.75C8.68535 9.92239 8.61687 10.0877 8.49497 10.2096C8.37307 10.3315 8.20774 10.4 8.03535 10.4C7.86296 10.4 7.69763 10.3315 7.57573 10.2096C7.45383 10.0877 7.38535 9.92239 7.38535 9.75V5.85C7.38535 5.67761 7.45383 5.51228 7.57573 5.39038C7.69763 5.26848 7.86296 5.2 8.03535 5.2Z" fill="#FF0000"/>
</svg>
