<svg width="56" height="56" viewBox="0 0 56 56" fill="none" xmlns="http://www.w3.org/2000/svg">
<circle cx="28" cy="28" r="28" fill="#F4F7FE"/>
<g clip-path="url(#clip0_51_567)">
<path d="M34.25 38C34.25 35.9288 31.4512 34.25 28 34.25C24.5488 34.25 21.75 35.9288 21.75 38M39.25 34.25C39.25 32.7125 37.7075 31.3913 35.5 30.8125M16.75 34.25C16.75 32.7125 18.2925 31.3913 20.5 30.8125M35.5 25.795C35.8703 25.4676 36.1723 25.0702 36.3885 24.6258C36.6047 24.1813 36.7309 23.6984 36.7598 23.205C36.7887 22.7115 36.7198 22.2172 36.5571 21.7505C36.3943 21.2838 36.1408 20.8538 35.8113 20.4854C35.4818 20.117 35.0826 19.8174 34.6369 19.6038C34.1911 19.3901 33.7076 19.2668 33.214 19.2407C32.7204 19.2146 32.2265 19.2864 31.7607 19.4519C31.2949 19.6174 30.8665 19.8733 30.5 20.205M20.5 25.795C19.7654 25.1302 19.3237 24.2017 19.2715 23.2123C19.2192 22.2228 19.5607 21.253 20.2212 20.5145C20.8817 19.776 21.8077 19.329 22.7968 19.271C23.7859 19.213 24.7577 19.5488 25.5 20.205M28 30.5C27.5075 30.5 27.0199 30.403 26.5649 30.2146C26.11 30.0261 25.6966 29.7499 25.3483 29.4017C25.0001 29.0534 24.7239 28.64 24.5355 28.1851C24.347 27.7301 24.25 27.2425 24.25 26.75C24.25 26.2575 24.347 25.7699 24.5355 25.3149C24.7239 24.86 25.0001 24.4466 25.3483 24.0984C25.6966 23.7501 26.11 23.4739 26.5649 23.2855C27.0199 23.097 27.5075 23 28 23C28.9946 23 29.9484 23.3951 30.6517 24.0984C31.3549 24.8016 31.75 25.7554 31.75 26.75C31.75 27.7446 31.3549 28.6984 30.6517 29.4017C29.9484 30.1049 28.9946 30.5 28 30.5Z" stroke="#E53C08" stroke-width="2.16667" stroke-linecap="round" stroke-linejoin="round"/>
</g>
<defs>
<clipPath id="clip0_51_567">
<rect width="33" height="33" fill="white" transform="translate(10 12)"/>
</clipPath>
</defs>
</svg>
