<svg width="25" height="25" viewBox="0 0 25 25" fill="none" xmlns="http://www.w3.org/2000/svg">
<path fill-rule="evenodd" clip-rule="evenodd" d="M12.4175 1.37342e-10C14.0008 -7.69452e-06 15.5685 0.323308 17.0312 0.951487C18.494 1.57967 19.823 2.50041 20.9426 3.66114C22.0621 4.82187 22.9501 6.19986 23.556 7.71643C24.1619 9.233 24.4738 10.8584 24.4738 12.5C24.4738 19.4035 19.076 25 12.4175 25C5.7591 25 0.361328 19.4035 0.361328 12.5C0.361328 5.59646 5.7591 1.37342e-10 12.4175 1.37342e-10ZM13.6232 13.75H11.2119C8.22715 13.75 5.66466 15.6242 4.55943 18.2997C6.30818 20.8421 9.17613 22.5 12.4175 22.5C15.6589 22.5 18.5268 20.8421 20.2757 18.2995C19.1704 15.6242 16.6079 13.75 13.6232 13.75ZM12.4175 3.75C10.42 3.75 8.80065 5.42894 8.80065 7.49999C8.80065 9.57105 10.42 11.25 12.4175 11.25C14.415 11.25 16.0344 9.57105 16.0344 7.49999C16.0344 5.42894 14.4151 3.75 12.4175 3.75Z" fill="#015AAC"/>
</svg>
